<svg height="862" width="720" xmlns="http://www.w3.org/2000/svg">
<rect height="862" fill="#555" width="720"></rect>
<text fill="#7f7" font-family="Courier New" font-size="12" xml:space="preserve">
<tspan x="10" y="26">16 megabytes installed</tspan>
<tspan x="10" y="42"></tspan>
<tspan x="10" y="58">node_modules</tspan>
<tspan x="10" y="74">└─┬ babel-preset-node5@12.0.1 </tspan>
<tspan x="10" y="90">  ├── babel-plugin-syntax-async-functions@6.13.0 </tspan>
<tspan x="10" y="106">  ├── babel-plugin-syntax-object-rest-spread@6.13.0 </tspan>
<tspan x="10" y="122">  ├── babel-plugin-syntax-trailing-function-commas@6.22.0 </tspan>
<tspan x="10" y="138">  ├─┬ babel-plugin-transform-async-to-generator@6.24.1 </tspan>
<tspan x="10" y="154">  │ ├─┬ babel-helper-remap-async-to-generator@6.24.1 </tspan>
<tspan x="10" y="170">  │ │ └── babel-helper-function-name@6.24.1 </tspan>
<tspan x="10" y="186">  │ └── babel-runtime@6.23.0 </tspan>
<tspan x="10" y="202">  ├── babel-plugin-transform-es2015-destructuring@6.23.0 </tspan>
<tspan x="10" y="218">  ├─┬ babel-plugin-transform-es2015-modules-commonjs@6.24.1 </tspan>
<tspan x="10" y="234">  │ ├─┬ babel-template@6.24.1 </tspan>
<tspan x="10" y="250">  │ │ ├── babylon@6.17.0 </tspan>
<tspan x="10" y="266">  │ │ └── lodash@4.17.4 </tspan>
<tspan x="10" y="282">  │ └─┬ babel-types@6.24.1 </tspan>
<tspan x="10" y="298">  │   ├── esutils@2.0.2 </tspan>
<tspan x="10" y="314">  │   └── to-fast-properties@1.0.2 </tspan>
<tspan x="10" y="330">  ├─┬ babel-plugin-transform-es2015-parameters@6.24.1 </tspan>
<tspan x="10" y="346">  │ ├─┬ babel-helper-call-delegate@6.24.1 </tspan>
<tspan x="10" y="362">  │ │ └── babel-helper-hoist-variables@6.24.1 </tspan>
<tspan x="10" y="378">  │ ├── babel-helper-get-function-arity@6.24.1 </tspan>
<tspan x="10" y="394">  │ └─┬ babel-traverse@6.24.1 </tspan>
<tspan x="10" y="410">  │   ├─┬ babel-code-frame@6.22.0 </tspan>
<tspan x="10" y="426">  │   │ ├─┬ chalk@1.1.3 </tspan>
<tspan x="10" y="442">  │   │ │ ├── ansi-styles@2.2.1 </tspan>
<tspan x="10" y="458">  │   │ │ ├── escape-string-regexp@1.0.5 </tspan>
<tspan x="10" y="474">  │   │ │ ├─┬ has-ansi@2.0.0 </tspan>
<tspan x="10" y="490">  │   │ │ │ └── ansi-regex@2.1.1 </tspan>
<tspan x="10" y="506">  │   │ │ ├── strip-ansi@3.0.1 </tspan>
<tspan x="10" y="522">  │   │ │ └── supports-color@2.0.0 </tspan>
<tspan x="10" y="538">  │   │ └── js-tokens@3.0.1 </tspan>
<tspan x="10" y="554">  │   ├── babel-messages@6.23.0 </tspan>
<tspan x="10" y="570">  │   ├─┬ debug@2.6.4 </tspan>
<tspan x="10" y="586">  │   │ └── ms@0.7.3 </tspan>
<tspan x="10" y="602">  │   ├── globals@9.17.0 </tspan>
<tspan x="10" y="618">  │   └─┬ invariant@2.2.2 </tspan>
<tspan x="10" y="634">  │     └── loose-envify@1.3.1 </tspan>
<tspan x="10" y="650">  ├─┬ babel-plugin-transform-es2015-sticky-regex@6.24.1 </tspan>
<tspan x="10" y="666">  │ └── babel-helper-regex@6.24.1 </tspan>
<tspan x="10" y="682">  ├─┬ babel-plugin-transform-es2015-unicode-regex@6.24.1 </tspan>
<tspan x="10" y="698">  │ └─┬ regexpu-core@2.0.0 </tspan>
<tspan x="10" y="714">  │   ├── regenerate@1.3.2 </tspan>
<tspan x="10" y="730">  │   ├── regjsgen@0.2.0 </tspan>
<tspan x="10" y="746">  │   └─┬ regjsparser@0.1.5 </tspan>
<tspan x="10" y="762">  │     └── jsesc@0.5.0 </tspan>
<tspan x="10" y="778">  ├── babel-plugin-transform-object-rest-spread@6.23.0 </tspan>
<tspan x="10" y="794">  ├── babel-plugin-transform-strict-mode@6.24.1 </tspan>
<tspan x="10" y="810">  └─┬ babel-polyfill@6.23.0 </tspan>
<tspan x="10" y="826">    ├── core-js@2.4.1 </tspan>
<tspan x="10" y="842">    └── regenerator-runtime@0.10.3</tspan>
</text>
</svg>
